<?xml version="1.0" encoding="UTF-8" standalone="no"?>
<svg
   xmlns:dc="http://purl.org/dc/elements/1.1/"
   xmlns:cc="http://creativecommons.org/ns#"
   xmlns:rdf="http://www.w3.org/1999/02/22-rdf-syntax-ns#"
   xmlns:svg="http://www.w3.org/2000/svg"
   xmlns="http://www.w3.org/2000/svg"
   xmlns:sodipodi="http://sodipodi.sourceforge.net/DTD/sodipodi-0.dtd"
   xmlns:inkscape="http://www.inkscape.org/namespaces/inkscape"
   width="210mm"
   height="297mm"
   viewBox="0 0 210 297"
   version="1.1"
   id="svg8"
   inkscape:version="1.0.2-2 (e86c870879, 2021-01-15)"
   sodipodi:docname="Download_Button.svg">
  <defs
     id="defs2" />
  <sodipodi:namedview
     id="base"
     pagecolor="#ffffff"
     bordercolor="#666666"
     borderopacity="1.0"
     inkscape:pageopacity="0.0"
     inkscape:pageshadow="2"
     inkscape:zoom="0.49497475"
     inkscape:cx="-114.55576"
     inkscape:cy="358.45195"
     inkscape:document-units="mm"
     inkscape:current-layer="layer1"
     inkscape:document-rotation="0"
     showgrid="false"
     inkscape:window-width="1920"
     inkscape:window-height="1017"
     inkscape:window-x="-8"
     inkscape:window-y="-8"
     inkscape:window-maximized="1" />
  <metadata
     id="metadata5">
    <rdf:RDF>
      <cc:Work
         rdf:about="">
        <dc:format>image/svg+xml</dc:format>
        <dc:type
           rdf:resource="http://purl.org/dc/dcmitype/StillImage" />
        <dc:title></dc:title>
      </cc:Work>
    </rdf:RDF>
  </metadata>
  <g
     inkscape:label="Layer 1"
     inkscape:groupmode="layer"
     id="layer1">
    <rect
       style="fill:#32f432;fill-opacity:1;fill-rule:evenodd;stroke:#32f432;stroke-width:3.43528;stroke-miterlimit:4;stroke-dasharray:none;stroke-opacity:1"
       id="rect861"
       width="78.611946"
       height="23.688059"
       x="87.713867"
       y="54.03791"
       ry="3.413429"
       inkscape:export-filename="C:\Users\Jaka\Documents\VS_Code\Brick_Designer\Web_Gui\Png\Download_Button.png"
       inkscape:export-xdpi="107"
       inkscape:export-ydpi="107" />
    <path
       style="fill:#3be43b;fill-opacity:1;fill-rule:evenodd;stroke-width:5.39933"
       d="m 338.44117,298.87799 c -4.34197,-1.33849 -8.73482,-5.24059 -10.98651,-9.75912 -1.76917,-3.55026 -1.84876,-4.22879 -1.84876,-15.76073 0,-11.14332 0.0941,-12.02256 1.25,-11.67639 25.6753,7.68932 60.3263,14.34689 102.32143,19.65923 35.01484,4.42934 68.43189,7.42149 144.23481,12.91471 27.27558,1.97658 49.72536,3.72719 49.88841,3.89024 1.63175,1.63175 -13.44939,1.81846 -143.40893,1.77543 -116.19516,-0.0385 -138.72985,-0.2047 -141.45045,-1.04337 z"
       id="path867"
       transform="scale(0.26458333)"
       inkscape:export-filename="C:\Users\Jaka\Documents\VS_Code\Brick_Designer\Web_Gui\Png\Download_Button.png"
       inkscape:export-xdpi="107"
       inkscape:export-ydpi="107" />
    <path
       style="fill:#62f462;fill-opacity:1;fill-rule:evenodd;stroke-width:5.39933"
       d="m 632.37071,236.84449 c -2.3955,-1.67787 -9.76479,-4.54846 -18.38264,-7.16064 C 574.02243,217.56972 474.77442,207.61249 358.1059,204.01203 l -27.14286,-0.83765 3.23049,-1.9295 c 1.77677,-1.06123 4.83034,-2.26987 6.78572,-2.68587 2.45023,-0.52128 46.40249,-0.69626 141.41237,-0.563 l 137.85714,0.19337 3.38481,1.66696 c 4.4717,2.20224 8.84775,7.26171 10.18992,11.78129 1.14233,3.84661 1.5798,26.1946 0.51278,26.1946 -0.30545,0 -1.18995,-0.44448 -1.96556,-0.98774 z"
       id="path871"
       transform="scale(0.26458333)"
       inkscape:export-filename="C:\Users\Jaka\Documents\VS_Code\Brick_Designer\Web_Gui\Png\Download_Button.png"
       inkscape:export-xdpi="107"
       inkscape:export-ydpi="107" />
    <text
       xml:space="preserve"
       style="font-style:normal;font-variant:normal;font-weight:bold;font-stretch:normal;font-size:9.92912px;line-height:1.25;font-family:sans-serif;-inkscape-font-specification:'sans-serif, Bold';font-variant-ligatures:normal;font-variant-caps:normal;font-variant-numeric:normal;font-variant-east-asian:normal;fill:#ffffff;stroke-width:1.86172"
       x="91.259071"
       y="68.743675"
       id="text875"
       inkscape:export-filename="C:\Users\Jaka\Documents\VS_Code\Brick_Designer\Web_Gui\Png\Download_Button.png"
       inkscape:export-xdpi="107"
       inkscape:export-ydpi="107"><tspan
         sodipodi:role="line"
         id="tspan873"
         x="91.259071"
         y="68.743675"
         style="font-style:normal;font-variant:normal;font-weight:bold;font-stretch:normal;font-size:9.92912px;font-family:sans-serif;-inkscape-font-specification:'sans-serif, Bold';font-variant-ligatures:normal;font-variant-caps:normal;font-variant-numeric:normal;font-variant-east-asian:normal;fill:#ffffff;stroke-width:1.86172">Download</tspan></text>
    <path
       style="fill:#ffffff;fill-opacity:1;fill-rule:evenodd;stroke:#ffffff;stroke-width:0.389744;stroke-opacity:1"
       d="m 156.61101,67.511285 c -0.0898,-0.05461 -0.16345,-0.117016 -0.16369,-0.138693 -2.6e-4,-0.0217 -0.0756,-0.120635 -0.16759,-0.219888 -0.092,-0.09925 -0.25913,-0.296469 -0.3716,-0.438262 -0.11248,-0.141787 -0.2172,-0.2694 -0.23273,-0.283579 -0.0156,-0.01419 -0.13199,-0.153389 -0.25884,-0.309356 -0.12681,-0.155969 -0.24348,-0.29518 -0.25927,-0.30936 -0.0157,-0.01418 -0.56923,-0.682271 -1.22992,-1.484648 -0.75598,-0.918163 -1.1905,-1.486674 -1.17237,-1.533901 0.0241,-0.06246 0.21482,-0.07504 1.13894,-0.07504 h 1.11014 V 59.497884 56.27721 l 0.11596,-0.06627 c 0.1242,-0.07093 2.68956,-0.128382 3.01461,-0.0675 0.34304,0.06425 0.3239,-0.131106 0.3239,3.30475 v 3.115685 h 0.84353 c 1.08228,0 1.32197,0.03062 1.32197,0.168892 0,0.05685 -0.17032,0.326295 -0.37849,0.598818 -0.20819,0.27253 -0.46491,0.611515 -0.57053,0.753307 -0.10566,0.141787 -0.22142,0.294101 -0.25731,0.338477 -0.0357,0.04441 -0.1678,0.215715 -0.29311,0.380766 -0.12528,0.165042 -0.28581,0.375024 -0.35669,0.466628 -0.0709,0.0916 -0.23171,0.303096 -0.35732,0.469976 -0.12563,0.16688 -0.24178,0.315022 -0.2581,0.329198 -0.0163,0.01421 -0.0988,0.118593 -0.18318,0.232022 -0.0846,0.113427 -0.1815,0.241043 -0.21567,0.283584 -0.0342,0.04254 -0.13899,0.172509 -0.2329,0.288833 -0.0939,0.116328 -0.24035,0.297774 -0.32542,0.403223 -0.0851,0.105442 -0.21463,0.223497 -0.28792,0.262333 -0.11742,0.06227 -0.15252,0.0589 -0.29646,-0.02862 z"
       id="path893"
       inkscape:export-filename="C:\Users\Jaka\Documents\VS_Code\Brick_Designer\Web_Gui\Png\Download_Button.png"
       inkscape:export-xdpi="107"
       inkscape:export-ydpi="107" />
    <path
       style="fill:#ffffff;fill-opacity:1;fill-rule:evenodd;stroke:#ffffff;stroke-width:0.389744;stroke-opacity:1"
       d="m 148.79914,74.518381 c -0.39496,-0.07624 -0.66834,-0.287397 -0.87082,-0.67263 -0.11681,-0.222181 -0.11681,-0.223775 -0.13097,-3.070973 l -0.0142,-2.848677 h 1.21292 1.21292 v 2.11395 2.11395 h 6.49654 6.49652 v -2.11395 -2.11395 h 1.18589 1.18588 v 2.863616 c 0,2.726019 -0.006,2.872987 -0.0994,3.058436 -0.12933,0.25352 -0.4605,0.550043 -0.70903,0.634828 -0.15804,0.05393 -1.73102,0.06883 -7.95675,0.07541 -4.63938,0.0048 -7.86019,-0.01126 -8.00954,-0.03999 z"
       id="path895"
       inkscape:export-filename="C:\Users\Jaka\Documents\VS_Code\Brick_Designer\Web_Gui\Png\Download_Button.png"
       inkscape:export-xdpi="107"
       inkscape:export-ydpi="107" />
  </g>
</svg>
